Coordinates
version=1
nRows=19
nColumns=24
inDegrees=yes

Units are S.I. units (second, meters, Newtons, ...)
Angles are in degrees.

endheader
time	pelvis_tilt	pelvis_list	pelvis_rotation	pelvis_tx	pelvis_ty	pelvis_tz	hip_flexion_r	hip_adduction_r	hip_rotation_r	knee_angle_r	ankle_angle_r	subtalar_angle_r	mtp_angle_r	hip_flexion_l	hip_adduction_l	hip_rotation_l	knee_angle_l	ankle_angle_l	subtalar_angle_l	mtp_angle_l	lumbar_extension	lumbar_bending	lumbar_rotation
      4.72500000	     -8.98193439	    -10.15982593	      9.70485440	     -1.36876909	     -0.02965744	      0.49080932	     23.84818698	      9.52404344	     -9.55394322	    -20.99989660	     -2.32739637	     -6.71416757	      4.11504728	     18.35779635	    -10.14795313	      9.50165457	    -63.07118350	    -24.69687789	     -1.69429625	     27.10030528	      5.93297550	      7.84042992	     -7.89625680
      4.73000000	     -8.90980123	     -9.97771220	      9.61011013	     -1.36245381	     -0.02869182	      0.49155641	     23.14032517	      9.55681376	     -9.33166422	    -20.73692689	     -1.95982204	     -6.52919468	      4.17816585	     19.08589388	     -9.74777923	      9.61204616	    -63.81061964	    -24.19087929	     -2.93291966	     26.65232502	      5.80549897	      7.60991601	     -7.63267507
      4.73500000	     -8.86563444	     -9.75505130	      9.48325204	     -1.35617278	     -0.02770582	      0.49233457	     22.44333901	      9.54845242	     -9.08693087	    -20.45078277	     -1.59608288	     -6.33044632	      4.26512270	     19.81566899	     -9.31687191	      9.67159373	    -64.44447636	    -23.63813060	     -3.97351683	     26.28858940	      5.69721342	      7.33502921	     -7.33169792
      4.74000000	     -8.85172591	     -9.48622524	      9.32265653	     -1.34992896	     -0.02667135	      0.49310328	     21.76073983	      9.48711736	     -8.82863325	    -20.14349702	     -1.28451861	     -6.11250827	      4.36176081	     20.53754148	     -8.84355904	      9.67944559	    -64.95922953	    -23.02267070	     -4.84859523	     25.99255594	      5.61236525	      7.01735687	     -7.00265573
      4.74500000	     -8.86239288	     -9.18984919	      9.13614413	     -1.34371641	     -0.02562281	      0.49389739	     21.08914060	      9.39624627	     -8.55531035	    -19.80978569	     -0.99749682	     -5.90010142	      4.46517390	     21.26040426	     -8.35851146	      9.63577194	    -65.36738489	    -22.36249699	     -5.55983474	     25.76674075	      5.54785067	      6.66840704	     -6.65513541
      4.75000000	     -8.89579946	     -8.85939760	      8.92733827	     -1.33755111	     -0.02456623	      0.49471741	     20.43225520	      9.26863758	     -8.25792772	    -19.46101674	     -0.73031185	     -5.70265407	      4.57460206	     21.98216420	     -7.85117970	      9.54937976	    -65.67102608	    -21.67440901	     -6.12591438	     25.59729611	      5.49869732	      6.28392946	     -6.28807811
      4.75500000	     -8.94996112	     -8.49787388	      8.69757741	     -1.33143081	     -0.02350099	      0.49553890	     19.78929550	      9.10488848	     -7.93842618	    -19.09661930	     -0.48667426	     -5.51464128	      4.68335974	     22.70014721	     -7.32728939	      9.41183978	    -65.86853865	    -20.96401208	     -6.57079457	     25.46579680	      5.46666568	      5.87042196	     -5.90675018
      4.76000000	     -9.02065431	     -8.11652578	      8.40561004	     -1.32532479	     -0.02242720	      0.49640720	     19.15823473	      8.92872729	     -7.56787502	    -18.72317479	     -0.26981856	     -5.28482950	      4.80066787	     23.39824991	     -6.81695886	      9.18803048	    -65.96321365	    -20.22566628	     -6.91844143	     25.28427009	      5.44612638	      5.44640713	     -5.45849785
      4.76500000	     -9.11023781	     -7.68458381	      8.15173909	     -1.31928642	     -0.02137436	      0.49726725	     18.55237281	      8.68395959	     -7.23464452	    -18.35401128	     -0.06109818	     -5.16824313	      4.87927978	     24.10107890	     -6.24716177	      8.97885499	    -65.95125095	    -19.49780677	     -7.15264775	     25.20751953	      5.43959517	      4.95663408	     -5.07086563
      4.77000000	     -9.20846763	     -7.24805990	      7.80324939	     -1.31326281	     -0.02032259	      0.49818578	     17.95349396	      8.45191769	     -6.78725936	    -17.97943531	      0.11310548	     -4.97711136	      4.97345426	     24.77122244	     -5.72158073	      8.66374507	    -65.83982423	    -18.74542038	     -7.31866029	     25.07365755	      5.43925261	      4.48563911	     -4.58120627
      4.77500000	     -9.31535016	     -6.78585344	      7.51714570	     -1.30727445	     -0.01932109	      0.49905406	     17.37086174	      8.17018596	     -6.42717785	    -17.60286656	      0.28826527	     -4.90390114	      5.01755246	     25.44757351	     -5.15789478	      8.37871426	    -65.63525992	    -18.04404061	     -7.44940030	     25.00420660	      5.45982060	      3.97610231	     -4.18193121
      4.78000000	     -9.42691085	     -6.31915794	      7.16931412	     -1.30131796	     -0.01834555	      0.49998305	     16.80034328	      7.89457175	     -5.99867358	    -17.22997313	      0.44046483	     -4.80585454	      5.05792602	     26.09459717	     -4.62687061	      8.03036454	    -65.32997065	    -17.35144043	     -7.55526572	     24.92400043	      5.47562754	      3.47120114	     -3.72357583
      4.78500000	     -9.51883746	     -5.87710264	      6.76284848	     -1.29538585	     -0.01740455	      0.50093964	     16.21359600	      7.65708097	     -5.47675571	    -16.85123396	      0.55917164	     -4.70065919	      5.07174687	     26.70112823	     -4.16274272	      7.62333277	    -64.94776240	    -16.66717172	     -7.66161579	     24.77249118	      5.47689593	      3.01144139	     -3.19516032
      4.79000000	     -9.61643889	     -5.42009249	      6.40565959	     -1.28949452	     -0.01651971	      0.50182446	     15.65244528	      7.37877071	     -5.07034126	    -16.48926228	      0.65916521	     -4.66595781	      5.05332219	     27.30115286	     -3.66818876	      7.25356756	    -64.46815186	    -16.03112899	     -7.78903124	     24.66890945	      5.49156876	      2.53248968	     -2.74863688
      4.79500000	     -9.69701188	     -4.98070728	      6.01153421	     -1.28359748	     -0.01569529	      0.50272376	     15.06985123	      7.12534855	     -4.59547069	    -16.11098459	      0.76839737	     -4.63281191	      5.01850776	     27.86432192	     -3.22598026	      6.84391119	    -63.91087188	    -15.43295790	     -7.94466782	     24.53866110	      5.49839176	      2.08736878	     -2.27077827
      4.80000000	     -9.75178100	     -4.57583598	      5.60108769	     -1.27768613	     -0.01493389	      0.50360853	     14.45788435	      6.90758098	     -4.08802612	    -15.71632694	      0.87049769	     -4.61210242	      4.95813599	     28.38790271	     -2.84380010	      6.42203577	    -63.28352758	    -14.87040655	     -8.14148813	     24.36587983	      5.49061200	      1.68678743	     -1.78472244
      4.80500000	     -9.80334424	     -4.17000142	      5.19857639	     -1.27179638	     -0.01423537	      0.50446057	     13.86458530	      6.67483749	     -3.65431260	    -15.34691079	      0.95385256	     -4.62123260	      4.88122478	     28.88843966	     -2.46860439	      6.00283344	    -62.56698646	    -14.32376451	     -8.35831485	     24.19488353	      5.48510948	      1.28944250	     -1.33688502
      4.81000000	     -9.81505756	     -3.81038471	      4.76536039	     -1.26588544	     -0.01359389	      0.50530245	     13.21133882	      6.49480408	     -3.12714459	    -14.93655580	      1.04749089	     -4.62407213	      4.78025351	     29.33768540	     -2.17345828	      5.56272026	    -61.79449074	    -13.82488688	     -8.60833273	     23.95272989	      5.45104086	      0.95757861	     -0.85023667
      4.81500000	     -9.81812728	     -3.46392592	      4.33927698	     -1.25997790	     -0.01301870	      0.50611563	     12.56126277	      6.31548745	     -2.64868058	    -14.53738799	      1.13081139	     -4.64228425	      4.66627885	     29.76250921	     -1.90249337	      5.12889362	    -60.94568378	    -13.34135690	     -8.85833261	     23.69109849	      5.41564831	      0.64086300	     -0.39614706
